<svg version="1.1" xmlns="http://www.w3.org/2000/svg" viewBox="0 0 265.04947524969214 80.64722246722988" width="530.0989504993843" height="161.29444493445976">
  <!-- svg-source:excalidraw -->
  
  <defs>
    <style class="style-fonts">
      @font-face {
        font-family: "Virgil";
        src: url("https://excalidraw.com/Virgil.woff2");
      }
      @font-face {
        font-family: "Cascadia";
        src: url("https://excalidraw.com/Cascadia.woff2");
      }
      @font-face {
        font-family: "Assistant";
        src: url("https://excalidraw.com/Assistant-Regular.woff2");
      }
    </style>
    
  </defs>
  <g stroke-linecap="round" transform="translate(10 10.572969428899171) rotate(0 37.88919506770435 30)"><path d="M15 0 C25.94 -0.67, 37.62 1.73, 60.78 0 M15 0 C26.53 0.05, 39.39 -0.95, 60.78 0 M60.78 0 C70.18 1.64, 75.43 4.53, 75.78 15 M60.78 0 C70.03 0.44, 77.94 3.85, 75.78 15 M75.78 15 C74.8 23.56, 75.82 28.94, 75.78 45 M75.78 15 C75.31 24.06, 75.82 34.31, 75.78 45 M75.78 45 C74.52 53.05, 69.09 61.69, 60.78 60 M75.78 45 C77.98 53.62, 71.98 58.48, 60.78 60 M60.78 60 C46.15 59.64, 33.18 58.04, 15 60 M60.78 60 C49.02 60.24, 38.23 60.64, 15 60 M15 60 C5.97 60.07, 0.21 53.93, 0 45 M15 60 C5.6 60.99, -1.2 54.07, 0 45 M0 45 C1.03 37.71, -1.47 28.88, 0 15 M0 45 C0.07 38.15, -0.33 32.51, 0 15 M0 15 C0.15 3.96, 6.47 0.29, 15 0 M0 15 C-0.95 5.64, 4.2 0.79, 15 0" stroke="#1e1e1e" stroke-width="1" fill="none"></path></g><g transform="translate(23.72921429377857 30.57296942889917) rotate(0 24.15998077392578 10)"><text x="24.15998077392578" y="0" font-family="Virgil, Segoe UI Emoji" font-size="16px" fill="#1e1e1e" text-anchor="middle" style="white-space: pre;" direction="ltr" dominant-baseline="text-before-edge">server</text></g><g stroke-linecap="round" transform="translate(177.55695157282662 10) rotate(0 38.74626183843276 30.32361123361494)"><path d="M15.16 0 C32.69 1, 46.39 -0.13, 62.33 0 M15.16 0 C24.64 -0.01, 35.09 0.95, 62.33 0 M62.33 0 C72 0.83, 76.48 6.41, 77.49 15.16 M62.33 0 C70.89 1.04, 76.07 5.81, 77.49 15.16 M77.49 15.16 C79.15 21.11, 75.64 31.26, 77.49 45.49 M77.49 15.16 C77.31 26.52, 78.32 37.24, 77.49 45.49 M77.49 45.49 C78.04 55.94, 71.07 60.46, 62.33 60.65 M77.49 45.49 C79.44 55.96, 74.54 61.87, 62.33 60.65 M62.33 60.65 C44.65 61.2, 25.96 61.28, 15.16 60.65 M62.33 60.65 C50.79 60.21, 41.18 61.51, 15.16 60.65 M15.16 60.65 C4.77 59.86, -0.74 56.54, 0 45.49 M15.16 60.65 C6.66 59.3, 1.95 55, 0 45.49 M0 45.49 C0.97 39.35, 0.77 31.5, 0 15.16 M0 45.49 C-0.59 34.66, -0.15 22.7, 0 15.16 M0 15.16 C0.53 3.7, 5.1 -1.08, 15.16 0 M0 15.16 C2.11 6.6, 3.36 -0.69, 15.16 0" stroke="#1e1e1e" stroke-width="1" fill="none"></path></g><g transform="translate(195.79922323791948 30.32361123361494) rotate(0 20.503990173339844 10)"><text x="20.503990173339844" y="0" font-family="Virgil, Segoe UI Emoji" font-size="16px" fill="#1e1e1e" text-anchor="middle" style="white-space: pre;" direction="ltr" dominant-baseline="text-before-edge">client</text></g><g stroke-linecap="round"><g transform="translate(95.02229692164849 25.94605752261316) rotate(0 37.592365071899735 1.1889115649657924)"><path d="M0.2 0.26 C12.84 0.82, 63.37 2.55, 75.93 2.7 M-1.16 -0.65 C11.39 -0.4, 62.69 0.33, 75.38 0.75" stroke="#1e1e1e" stroke-width="1" fill="none"></path></g><g transform="translate(95.02229692164849 25.94605752261316) rotate(0 37.592365071899735 1.1889115649657924)"><path d="M51.7 8.77 C59.4 7.53, 66.73 4.45, 75.38 0.75 M51.7 8.77 C55.77 6, 60.18 4.8, 75.38 0.75" stroke="#1e1e1e" stroke-width="1" fill="none"></path></g><g transform="translate(95.02229692164849 25.94605752261316) rotate(0 37.592365071899735 1.1889115649657924)"><path d="M52.08 -8.32 C59.57 -4.35, 66.78 -2.21, 75.38 0.75 M52.08 -8.32 C56.14 -7.66, 60.47 -5.42, 75.38 0.75" stroke="#1e1e1e" stroke-width="1" fill="none"></path></g></g><mask></mask><g stroke-linecap="round"><g transform="translate(165.6344127064832 50.243144471431776) rotate(0 -34.51822492768099 -0.5467083300746083)"><path d="M0.64 0.84 C-10.86 0.57, -58.46 -1.45, -70.21 -1.58 M-0.48 0.24 C-11.53 0.12, -56.96 0.01, -68.12 -0.3" stroke="#1e1e1e" stroke-width="1" fill="none"></path></g><g transform="translate(165.6344127064832 50.243144471431776) rotate(0 -34.51822492768099 -0.5467083300746083)"><path d="M-44.52 -8.54 C-47.83 -8.72, -54.77 -6.55, -68.12 -0.3 M-44.52 -8.54 C-53.68 -4.87, -62.56 -2.85, -68.12 -0.3" stroke="#1e1e1e" stroke-width="1" fill="none"></path></g><g transform="translate(165.6344127064832 50.243144471431776) rotate(0 -34.51822492768099 -0.5467083300746083)"><path d="M-44.74 8.56 C-48.03 4.95, -54.92 3.7, -68.12 -0.3 M-44.74 8.56 C-53.82 5.42, -62.61 0.65, -68.12 -0.3" stroke="#1e1e1e" stroke-width="1" fill="none"></path></g></g><mask></mask></svg>